<svg width="310" height="68.5" viewBox="0 0 310 68.5" xmlns="http://www.w3.org/2000/svg"><g id="svgGroup" stroke-linecap="round" fill-rule="evenodd" font-size="9pt" stroke="#ffc300" stroke-width="0.25mm" fill="#ffc300" style="stroke:#ffc300;stroke-width:0.25mm;fill:#ffc300"><path d="M 5.888 68.391 A 18.903 18.903 0 0 0 8 68.5 Q 13.4 68.5 18.55 66.15 A 57.643 57.643 0 0 0 21.764 64.559 A 66.598 66.598 0 0 0 28.8 60.2 Q 33.2 57 38.05 52.75 Q 42.9 48.5 47.35 43.95 Q 51.8 39.4 55 35.4 Q 54.6 41.2 55.95 46.3 Q 57.3 51.4 59.9 55.3 A 23.036 23.036 0 0 0 61.438 57.355 A 18.649 18.649 0 0 0 66.05 61.35 A 16.747 16.747 0 0 0 66.495 61.61 A 14.055 14.055 0 0 0 73.5 63.5 Q 78.6 63.5 83 60.05 A 27.43 27.43 0 0 0 86.861 56.343 A 34.062 34.062 0 0 0 90.6 51 A 48.284 48.284 0 0 0 91.472 49.404 A 52.605 52.605 0 0 0 95.6 38.75 A 55.689 55.689 0 0 0 96.257 36.063 A 48.098 48.098 0 0 0 97.4 25.8 A 37.63 37.63 0 0 0 97.254 22.448 A 31.019 31.019 0 0 0 95.55 14.6 A 18.339 18.339 0 0 0 94.777 12.775 A 14.174 14.174 0 0 0 89.6 6.9 Q 86.4 4.8 82.5 4.8 A 14.867 14.867 0 0 0 81.691 4.822 Q 78.857 4.976 75.966 6.211 A 24.383 24.383 0 0 0 71.7 8.6 A 1.236 1.236 0 0 0 71.489 8.797 A 0.769 0.769 0 0 0 71.3 9.3 A 1.403 1.403 0 0 0 71.316 9.521 Q 71.412 10.117 72.055 10.257 A 2.104 2.104 0 0 0 72.5 10.3 A 1.064 1.064 0 0 0 72.696 10.281 Q 72.925 10.238 73.2 10.1 Q 75.1 8.6 77.6 8.3 A 5.501 5.501 0 0 1 77.938 8.243 A 4.546 4.546 0 0 1 78.55 8.2 L 79.4 8.2 A 14.284 14.284 0 0 1 79.941 8.21 A 10.654 10.654 0 0 1 87.6 11.6 Q 90.5 14.7 91.85 19.45 A 34.011 34.011 0 0 1 92.309 21.251 A 37.319 37.319 0 0 1 93.2 29.5 Q 93.2 34.8 92 40.1 Q 90.8 45.4 88.55 49.85 Q 86.3 54.3 83.25 56.95 A 13.298 13.298 0 0 1 83.011 57.153 A 10.562 10.562 0 0 1 76.4 59.7 Q 74.429 59.758 72.593 58.959 A 11.126 11.126 0 0 1 70 57.35 A 16.577 16.577 0 0 1 69.581 56.996 Q 68.127 55.726 66.83 54.008 A 27.706 27.706 0 0 1 64.65 50.6 A 33.815 33.815 0 0 1 62.922 46.916 A 41.163 41.163 0 0 1 61.05 40.85 Q 59.8 35.4 59.9 29.6 A 28.328 28.328 0 0 0 60.011 29.369 A 25.324 25.324 0 0 0 62.25 22.05 A 69.582 69.582 0 0 0 62.4 20.938 Q 62.8 17.774 62.8 15.3 Q 62.8 13.097 62.503 11.865 A 4.214 4.214 0 0 0 62.25 11.1 A 3.59 3.59 0 0 0 62.067 10.75 Q 61.908 10.484 61.724 10.301 A 1.274 1.274 0 0 0 60.8 9.9 Q 60.125 9.9 59.309 10.519 A 6.489 6.489 0 0 0 58.75 11 Q 57.6 12.1 56.75 13.45 A 12.991 12.991 0 0 0 56.49 13.88 Q 56.099 14.558 55.925 15.077 A 2.732 2.732 0 0 0 55.8 15.6 A 21.386 21.386 0 0 0 55.718 16.007 Q 55.548 16.905 55.429 17.927 A 37.576 37.576 0 0 0 55.25 20 Q 55.1 22.5 55.1 24.9 A 85.846 85.846 0 0 0 55.105 25.823 A 73.458 73.458 0 0 0 55.15 27.75 A 61.775 61.775 0 0 0 55.195 28.741 A 52.035 52.035 0 0 0 55.3 30.3 Q 49.5 38.5 42.05 45.8 Q 34.6 53.1 26.3 58.9 Q 21.7 62 17.3 64.1 A 37.985 37.985 0 0 1 16.464 64.487 Q 13.962 65.607 12.054 65.995 A 9.369 9.369 0 0 1 10.2 66.2 Q 7.1 66.2 7.1 63 Q 7.1 62.2 7.3 61.15 Q 7.413 60.559 7.588 59.89 A 27.15 27.15 0 0 1 7.9 58.8 A 56.504 56.504 0 0 1 9.653 54.471 A 73.85 73.85 0 0 1 12.25 49.3 Q 15 44.3 18.35 39.1 Q 21.7 33.9 25 28.9 Q 28.7 23.4 31.9 17.55 A 119.023 119.023 0 0 0 33.422 14.679 Q 34.459 12.654 35.275 10.843 A 55.676 55.676 0 0 0 36.7 7.4 A 43.77 43.77 0 0 1 37.294 7.503 A 39.097 39.097 0 0 1 39 7.85 A 34.867 34.867 0 0 1 39.544 7.978 A 31.051 31.051 0 0 1 41.1 8.4 A 11.2 11.2 0 0 0 41.464 8.53 Q 42.041 8.723 42.5 8.8 A 9.456 9.456 0 0 0 42.864 8.854 Q 43.228 8.9 43.5 8.9 A 2.391 2.391 0 0 0 43.571 8.899 Q 44.3 8.877 44.3 8.4 A 0.724 0.724 0 0 0 44.3 8.394 Q 44.296 7.927 43.69 7.249 A 6.893 6.893 0 0 0 43.3 6.85 A 11.27 11.27 0 0 0 43.28 6.831 Q 42.635 6.221 42.074 5.883 A 3.503 3.503 0 0 0 41.5 5.6 Q 40.6 5.2 39.65 4.8 Q 38.7 4.4 37.5 4 A 6.314 6.314 0 0 0 37.695 3.284 A 4.851 4.851 0 0 0 37.8 2.3 Q 37.8 1.937 37.747 1.732 A 0.67 0.67 0 0 0 37.7 1.6 A 3.785 3.785 0 0 0 37.565 1.25 Q 37.445 0.983 37.296 0.779 A 1.657 1.657 0 0 0 36.85 0.35 A 3.018 3.018 0 0 0 36.751 0.289 Q 36.255 0 35.8 0 Q 34.9 0 34.9 0.8 A 1.684 1.684 0 0 0 34.902 0.879 Q 34.907 0.992 34.928 1.091 A 0.881 0.881 0 0 0 35 1.3 A 1.826 1.826 0 0 1 35.137 1.669 A 2.154 2.154 0 0 1 35.2 2.2 Q 35.2 2.5 35.15 2.8 Q 35.1 3.1 35 3.5 Q 30.5 2.7 25.5 2.7 Q 21 2.7 16.5 3.45 A 37.53 37.53 0 0 0 13.507 4.072 A 30.674 30.674 0 0 0 8.35 5.85 A 18.388 18.388 0 0 0 5.64 7.347 A 13.744 13.744 0 0 0 2.6 10.1 A 8.351 8.351 0 0 0 1.132 12.814 Q 0.683 14.214 0.683 15.848 A 12.401 12.401 0 0 0 0.7 16.5 A 1.064 1.064 0 0 0 0.719 16.696 Q 0.762 16.925 0.9 17.2 A 3.598 3.598 0 0 1 0.982 17.375 Q 1.1 17.647 1.1 17.8 Q 1.2 20.3 2.9 22.2 A 14.921 14.921 0 0 0 3.688 23.017 A 12.512 12.512 0 0 0 6.65 25.15 Q 8.204 25.946 9.039 26.138 A 2.096 2.096 0 0 0 9.5 26.2 A 1.347 1.347 0 0 0 9.585 26.197 Q 9.724 26.189 9.802 26.149 A 0.16 0.16 0 0 0 9.9 26 Q 9.9 25.756 9.372 25.38 A 5.483 5.483 0 0 0 9.1 25.2 Q 8.4 24.7 6.95 24 Q 5.5 23.3 4.35 22.1 A 3.984 3.984 0 0 1 3.362 20.288 A 5.634 5.634 0 0 1 3.2 18.9 A 7.279 7.279 0 0 1 3.781 15.98 A 7.596 7.596 0 0 1 5.6 13.45 A 13.188 13.188 0 0 1 6.046 13.05 Q 8.357 11.074 11.95 9.8 A 39.65 39.65 0 0 1 14.482 8.998 A 46.154 46.154 0 0 1 20.5 7.75 A 70.092 70.092 0 0 1 22.214 7.529 A 62.237 62.237 0 0 1 29.4 7.1 L 31.5 7.1 Q 32.5 7.1 33.5 7.2 A 35.571 35.571 0 0 1 32.956 8.319 Q 32.318 9.576 31.504 10.954 A 66.359 66.359 0 0 1 29.95 13.45 A 246.172 246.172 0 0 1 28.806 15.188 A 276.903 276.903 0 0 1 25.15 20.55 A 329.402 329.402 0 0 0 24.516 21.46 A 300.685 300.685 0 0 0 20.3 27.7 Q 16 34.1 11.55 40.65 Q 7.1 47.2 3.6 53.2 Q 2 55.9 1 58.4 A 18.132 18.132 0 0 0 0.709 59.179 Q 0.368 60.157 0.191 61.054 A 9.551 9.551 0 0 0 0 62.9 A 6.443 6.443 0 0 0 0.014 63.323 A 4.974 4.974 0 0 0 1.85 66.95 A 4.587 4.587 0 0 0 2.4 67.344 Q 3.706 68.144 5.888 68.391 Z M 167.2 1.2 L 168.2 1.5 A 1.769 1.769 0 0 0 168.294 1.544 Q 168.385 1.583 168.448 1.595 A 0.282 0.282 0 0 0 168.5 1.6 Q 168.583 1.6 168.666 1.669 A 0.497 0.497 0 0 1 168.7 1.7 A 6.574 6.574 0 0 1 170.265 2.989 A 5.02 5.02 0 0 1 171.5 6.4 Q 171.5 8.8 169.9 11.8 A 21.437 21.437 0 0 1 168.668 13.922 Q 167.368 15.912 165.35 18.25 Q 162.2 21.9 158.15 25.65 Q 154.1 29.4 149.85 32.85 A 150.1 150.1 0 0 1 146.275 35.668 Q 144.069 37.35 142.1 38.7 Q 141.1 40.6 140.3 43.1 Q 139.5 45.6 139 48.1 A 53.868 53.868 0 0 1 143.48 42.471 A 58.218 58.218 0 0 1 143.5 42.45 Q 145.299 40.471 146.788 39.087 A 30.459 30.459 0 0 1 147.9 38.1 Q 151 35.5 153.95 33.95 Q 156.9 32.4 159.4 32.4 A 4.652 4.652 0 0 1 160.334 32.503 Q 161.225 32.687 162.341 33.196 A 14.322 14.322 0 0 1 162.35 33.2 Q 164.1 34 165.55 35.25 Q 166.619 36.172 167.009 37.175 A 3.279 3.279 0 0 1 167.2 37.9 A 3.135 3.135 0 0 0 167.215 38.217 A 2.454 2.454 0 0 0 167.25 38.45 A 2.524 2.524 0 0 1 167.29 38.747 A 3.227 3.227 0 0 1 167.3 39 A 10.629 10.629 0 0 1 166.669 42.544 A 13.954 13.954 0 0 1 165.8 44.5 A 26.769 26.769 0 0 1 162.328 49.486 A 29.613 29.613 0 0 1 162.05 49.8 Q 159.8 52.3 157.35 54.3 A 87.744 87.744 0 0 1 155.59 55.702 Q 154.188 56.788 153 57.6 Q 149.2 60.1 144.95 61.75 Q 140.7 63.4 136.1 63.4 Q 135.286 63.4 134.239 63.267 A 23.521 23.521 0 0 1 133.75 63.2 Q 132.59 63.028 131.688 62.782 A 11.806 11.806 0 0 1 131.4 62.7 A 8.814 8.814 0 0 1 131.086 62.6 Q 130.472 62.39 130.407 62.235 A 0.092 0.092 0 0 1 130.4 62.2 A 0.128 0.128 0 0 1 130.458 62.104 Q 130.623 61.973 131.249 61.867 A 8.637 8.637 0 0 1 131.35 61.85 Q 132.267 61.705 134.537 61.7 A 74.551 74.551 0 0 1 134.7 61.7 Q 137.2 61.7 140.15 60.45 Q 143.1 59.2 145.8 57.5 Q 147.656 56.331 149.134 55.352 A 103.768 103.768 0 0 0 150.4 54.5 A 37.068 37.068 0 0 0 153.353 52.075 Q 154.75 50.81 156.188 49.29 A 61.611 61.611 0 0 0 156.6 48.85 A 20.959 20.959 0 0 0 159.92 44.163 A 18.552 18.552 0 0 0 161.1 41.3 A 33.011 33.011 0 0 0 161.206 40.919 Q 161.375 40.3 161.6 39.4 Q 161.9 38.2 161.9 37 Q 161.9 36.045 161.598 35.353 A 2.878 2.878 0 0 0 161.5 35.15 A 1.338 1.338 0 0 0 160.619 34.473 Q 160.378 34.409 160.085 34.401 A 3.109 3.109 0 0 0 160 34.4 A 8.111 8.111 0 0 0 157.572 34.788 A 10.982 10.982 0 0 0 155.85 35.5 Q 153.7 36.6 151.75 38.05 Q 149.8 39.5 148.4 40.8 Q 147.2 41.7 145.5 43.5 A 43.902 43.902 0 0 0 143.186 46.164 A 51.412 51.412 0 0 0 142.15 47.5 A 27.09 27.09 0 0 0 140.499 49.959 A 21.681 21.681 0 0 0 139.5 51.85 Q 138.731 53.504 138.731 54.891 A 4.645 4.645 0 0 0 138.8 55.7 Q 138.967 56.033 138.682 56.922 A 8.229 8.229 0 0 1 138.55 57.3 Q 138.11 58.473 137.05 58.499 A 1.977 1.977 0 0 1 137 58.5 A 1.258 1.258 0 0 1 136.408 58.334 Q 135.732 57.972 134.917 56.824 A 11.702 11.702 0 0 1 134.9 56.8 Q 134.203 56.003 134.2 53.518 A 17.615 17.615 0 0 1 134.2 53.5 A 24.522 24.522 0 0 1 134.356 50.806 A 32.021 32.021 0 0 1 134.7 48.5 A 156.439 156.439 0 0 1 134.944 47.213 Q 135.25 45.633 135.515 44.47 A 50.618 50.618 0 0 1 135.6 44.1 Q 134.6 45.3 133.85 46.65 Q 133.1 48 130.8 50.6 A 1.474 1.474 0 0 1 130.458 50.859 A 1.16 1.16 0 0 1 129.9 51 Q 129.2 51 129.2 50.2 A 1.479 1.479 0 0 1 129.291 49.674 A 1.329 1.329 0 0 1 129.6 49.2 A 776.937 776.937 0 0 0 132.138 45.94 Q 133.129 44.661 134.006 43.513 A 381.579 381.579 0 0 0 135.65 41.35 A 72.101 72.101 0 0 0 136.697 39.928 Q 138.129 37.928 138.628 36.861 A 5.438 5.438 0 0 0 138.7 36.7 Q 139.416 34.821 140.571 31.983 A 438.173 438.173 0 0 1 140.85 31.3 Q 142.2 28 143.9 24.25 Q 145.6 20.5 147.4 16.95 A 80.04 80.04 0 0 1 148.956 14.026 Q 149.759 12.593 150.54 11.359 A 46.191 46.191 0 0 1 150.9 10.8 A 42.936 42.936 0 0 1 152.97 7.905 A 51.176 51.176 0 0 1 154.4 6.15 Q 156.4 3.8 158.9 2.25 Q 161.4 0.7 164.3 0.7 A 9.364 9.364 0 0 1 165.525 0.785 A 12.533 12.533 0 0 1 166.7 1 Q 166.799 1 167.189 1.195 A 8.576 8.576 0 0 1 167.2 1.2 Z M 109.6 49.3 L 109.4 49.3 Q 108.531 49.3 108.243 48.943 A 0.683 0.683 0 0 1 108.1 48.5 Q 108.1 48.023 108.829 48.001 A 2.391 2.391 0 0 1 108.9 48 A 8.916 8.916 0 0 0 110.61 47.67 Q 112.232 47.204 114.271 46.121 A 32.709 32.709 0 0 0 114.95 45.75 A 55.95 55.95 0 0 0 118.787 43.396 A 43.864 43.864 0 0 0 121.4 41.5 Q 122.6 40.5 124.25 38.7 A 8.281 8.281 0 0 0 125.116 37.592 Q 125.526 36.953 125.722 36.328 A 3.762 3.762 0 0 0 125.9 35.2 A 2.755 2.755 0 0 0 125.819 34.501 Q 125.585 33.609 124.667 33.44 A 2.578 2.578 0 0 0 124.2 33.4 A 4.45 4.45 0 0 0 122.946 33.587 A 5.567 5.567 0 0 0 122.35 33.8 Q 121.4 34.2 120.8 34.4 A 22.549 22.549 0 0 0 118.541 35.668 Q 117.335 36.432 116.04 37.427 A 46.729 46.729 0 0 0 114.4 38.75 Q 110.9 41.7 108.05 45.35 A 25.927 25.927 0 0 0 105.668 48.955 A 19.612 19.612 0 0 0 104.1 52.7 A 7.598 7.598 0 0 0 103.803 53.68 A 6.342 6.342 0 0 0 103.7 54.25 A 11.216 11.216 0 0 0 103.604 55.436 A 10.001 10.001 0 0 0 103.6 55.7 A 5.804 5.804 0 0 0 103.73 56.971 Q 103.908 57.766 104.333 58.339 A 3.097 3.097 0 0 0 105.15 59.1 A 6.157 6.157 0 0 0 107.433 59.976 A 8.348 8.348 0 0 0 108.9 60.1 A 16.533 16.533 0 0 0 113.425 59.445 A 20.724 20.724 0 0 0 115.7 58.65 A 35.741 35.741 0 0 0 122.087 55.184 A 39.571 39.571 0 0 0 122.5 54.9 Q 125.8 52.6 128.55 49.95 Q 131.3 47.3 133.2 44.8 A 1.389 1.389 0 0 1 133.418 44.566 A 0.918 0.918 0 0 1 133.9 44.35 A 1.372 1.372 0 0 1 133.972 44.343 Q 134.309 44.319 134.4 44.5 A 0.581 0.581 0 0 1 134.602 44.59 Q 134.8 44.734 134.8 45.05 Q 134.8 45.5 134.6 45.9 A 49.195 49.195 0 0 1 130.262 51.109 A 59.087 59.087 0 0 1 127.85 53.5 Q 123.9 57.2 119.15 59.65 Q 114.4 62.1 109.3 62.1 A 16.206 16.206 0 0 1 105.253 61.615 A 12.946 12.946 0 0 1 101.5 60 A 6.79 6.79 0 0 1 98.307 55.074 A 9.816 9.816 0 0 1 98.2 53.6 A 9.673 9.673 0 0 1 98.389 51.776 Q 98.562 50.879 98.893 49.87 A 23.752 23.752 0 0 1 99.6 48 Q 100.6 45.7 103.3 42.7 Q 106 39.7 109.6 36.85 Q 113.2 34 116.9 32.15 Q 120.6 30.3 123.6 30.3 A 6.981 6.981 0 0 1 124.759 30.392 A 5.588 5.588 0 0 1 125.6 30.6 A 5.196 5.196 0 0 1 126.681 31.118 A 3.481 3.481 0 0 1 127.95 32.5 Q 128.6 33.8 128.6 35.2 Q 128.6 36.5 128.2 37.7 A 9.772 9.772 0 0 1 127.703 38.923 A 7.72 7.72 0 0 1 127.2 39.8 A 14.687 14.687 0 0 1 124.685 42.648 A 20.013 20.013 0 0 1 122.05 44.6 A 34.448 34.448 0 0 1 116.755 47.332 A 30.811 30.811 0 0 1 115.25 47.9 A 40.913 40.913 0 0 1 113.216 48.552 Q 111.252 49.122 109.803 49.28 A 11.524 11.524 0 0 1 109.6 49.3 Z M 254.5 49.3 L 254.3 49.3 Q 253.431 49.3 253.143 48.943 A 0.683 0.683 0 0 1 253 48.5 Q 253 48.023 253.729 48.001 A 2.391 2.391 0 0 1 253.8 48 A 8.916 8.916 0 0 0 255.51 47.67 Q 257.132 47.204 259.171 46.121 A 32.709 32.709 0 0 0 259.85 45.75 A 55.95 55.95 0 0 0 263.687 43.396 A 43.864 43.864 0 0 0 266.3 41.5 Q 267.5 40.5 269.15 38.7 A 8.281 8.281 0 0 0 270.016 37.592 Q 270.426 36.953 270.622 36.328 A 3.762 3.762 0 0 0 270.8 35.2 A 2.755 2.755 0 0 0 270.719 34.501 Q 270.485 33.609 269.567 33.44 A 2.578 2.578 0 0 0 269.1 33.4 A 4.45 4.45 0 0 0 267.846 33.587 A 5.567 5.567 0 0 0 267.25 33.8 Q 266.3 34.2 265.7 34.4 A 22.549 22.549 0 0 0 263.441 35.668 Q 262.235 36.432 260.94 37.427 A 46.729 46.729 0 0 0 259.3 38.75 Q 255.8 41.7 252.95 45.35 A 25.927 25.927 0 0 0 250.568 48.955 A 19.612 19.612 0 0 0 249 52.7 A 7.598 7.598 0 0 0 248.703 53.68 A 6.342 6.342 0 0 0 248.6 54.25 A 11.216 11.216 0 0 0 248.504 55.436 A 10.001 10.001 0 0 0 248.5 55.7 A 5.804 5.804 0 0 0 248.63 56.971 Q 248.808 57.766 249.233 58.339 A 3.097 3.097 0 0 0 250.05 59.1 A 6.157 6.157 0 0 0 252.333 59.976 A 8.348 8.348 0 0 0 253.8 60.1 A 16.533 16.533 0 0 0 258.325 59.445 A 20.724 20.724 0 0 0 260.6 58.65 A 35.741 35.741 0 0 0 266.987 55.184 A 39.571 39.571 0 0 0 267.4 54.9 Q 270.7 52.6 273.45 49.95 Q 276.2 47.3 278.1 44.8 A 1.389 1.389 0 0 1 278.318 44.566 A 0.918 0.918 0 0 1 278.8 44.35 A 1.372 1.372 0 0 1 278.872 44.343 Q 279.209 44.319 279.3 44.5 A 0.581 0.581 0 0 1 279.502 44.59 Q 279.7 44.734 279.7 45.05 Q 279.7 45.5 279.5 45.9 A 49.195 49.195 0 0 1 275.162 51.109 A 59.087 59.087 0 0 1 272.75 53.5 Q 268.8 57.2 264.05 59.65 Q 259.3 62.1 254.2 62.1 A 16.206 16.206 0 0 1 250.153 61.615 A 12.946 12.946 0 0 1 246.4 60 A 6.79 6.79 0 0 1 243.207 55.074 A 9.816 9.816 0 0 1 243.1 53.6 A 9.673 9.673 0 0 1 243.289 51.776 Q 243.462 50.879 243.793 49.87 A 23.752 23.752 0 0 1 244.5 48 Q 245.5 45.7 248.2 42.7 Q 250.9 39.7 254.5 36.85 Q 258.1 34 261.8 32.15 Q 265.5 30.3 268.5 30.3 A 6.981 6.981 0 0 1 269.659 30.392 A 5.588 5.588 0 0 1 270.5 30.6 A 5.196 5.196 0 0 1 271.581 31.118 A 3.481 3.481 0 0 1 272.85 32.5 Q 273.5 33.8 273.5 35.2 Q 273.5 36.5 273.1 37.7 A 9.772 9.772 0 0 1 272.603 38.923 A 7.72 7.72 0 0 1 272.1 39.8 A 14.687 14.687 0 0 1 269.585 42.648 A 20.013 20.013 0 0 1 266.95 44.6 A 34.448 34.448 0 0 1 261.655 47.332 A 30.811 30.811 0 0 1 260.15 47.9 A 40.913 40.913 0 0 1 258.116 48.552 Q 256.152 49.122 254.703 49.28 A 11.524 11.524 0 0 1 254.5 49.3 Z M 171.4 65.6 Q 167.4 65.6 167.4 63.4 A 3.019 3.019 0 0 1 167.4 63.362 Q 167.42 61.78 169.1 60.1 Q 170.4 58.8 172 58 A 28.274 28.274 0 0 1 172.558 57.728 Q 173.655 57.21 173.988 57.2 A 0.428 0.428 0 0 1 174 57.2 Q 174.5 57.2 174.55 57.6 A 0.573 0.573 0 0 1 174.555 57.671 Q 174.555 58.018 174.1 58.2 A 13.033 13.033 0 0 0 173.315 58.713 Q 172.888 59.014 172.422 59.383 A 26.104 26.104 0 0 0 171.85 59.85 Q 170.6 60.9 170.6 62.1 A 1.914 1.914 0 0 0 170.711 62.781 Q 171.06 63.7 172.5 63.7 A 8.803 8.803 0 0 0 175.151 63.273 Q 176.206 62.941 177.3 62.35 A 20.709 20.709 0 0 0 181.815 59.031 A 23.035 23.035 0 0 0 181.95 58.9 A 26.376 26.376 0 0 0 184.009 56.655 A 20.45 20.45 0 0 0 185.45 54.65 A 12.195 12.195 0 0 0 186.147 53.391 Q 186.453 52.745 186.616 52.157 A 4.724 4.724 0 0 0 186.8 50.9 A 3.629 3.629 0 0 0 186.111 48.778 A 4.654 4.654 0 0 0 185.9 48.5 A 4.996 4.996 0 0 0 185.288 47.887 Q 184.595 47.292 183.439 46.6 A 29.721 29.721 0 0 0 182.2 45.9 Q 180.3 44.8 178.55 43.6 A 8.675 8.675 0 0 1 176.772 41.999 A 7.549 7.549 0 0 1 175.9 40.7 A 55.758 55.758 0 0 1 175.237 41.827 Q 174.934 42.329 174.587 42.885 A 112.933 112.933 0 0 1 173.85 44.05 A 41.148 41.148 0 0 1 172.301 46.291 A 51.824 51.824 0 0 1 170.9 48.1 Q 170.499 48.501 170.098 48.634 A 1.258 1.258 0 0 1 169.7 48.7 A 1.052 1.052 0 0 1 169.477 48.679 Q 169.156 48.609 169.108 48.31 A 0.702 0.702 0 0 1 169.1 48.2 Q 169.1 47.922 169.529 47.301 A 7.834 7.834 0 0 1 169.6 47.2 Q 171.667 44.75 172.914 42.593 A 19.462 19.462 0 0 0 173.6 41.3 A 94.004 94.004 0 0 0 174.2 40.031 Q 175.025 38.25 175.4 37.2 A 9.54 9.54 0 0 1 176.769 33.481 A 12.886 12.886 0 0 1 178.1 31.7 A 22.249 22.249 0 0 1 182.208 28.1 A 26.239 26.239 0 0 1 183.7 27.15 A 33.065 33.065 0 0 1 190.019 24.241 A 30.752 30.752 0 0 1 190.45 24.1 Q 193.324 23.184 195.677 23.031 A 14.224 14.224 0 0 1 196.6 23 Q 199.3 23 201.4 24 Q 203.405 24.955 203.496 27.003 A 4.444 4.444 0 0 1 203.5 27.2 A 4.791 4.791 0 0 1 203.33 28.43 Q 203.155 29.089 202.8 29.8 Q 201.9 31.7 199.8 33.2 Q 199.717 33.283 199.566 33.297 A 0.703 0.703 0 0 1 199.5 33.3 A 1.33 1.33 0 0 1 199.198 33.269 Q 198.786 33.173 198.715 32.778 A 1.002 1.002 0 0 1 198.7 32.6 Q 198.7 32.186 199.043 31.772 A 2.487 2.487 0 0 1 199.2 31.6 Q 200 30.9 200.5 29.9 Q 200.991 28.918 201 28.032 A 3.249 3.249 0 0 0 201 28 A 2.189 2.189 0 0 0 200.877 27.235 Q 200.492 26.2 198.9 26.2 A 10.852 10.852 0 0 0 197.311 26.329 Q 195.66 26.575 193.484 27.289 A 38.62 38.62 0 0 0 193.15 27.4 A 30.388 30.388 0 0 0 186.694 30.441 A 28.496 28.496 0 0 0 186.6 30.5 A 30.511 30.511 0 0 0 183.167 33.064 A 24.198 24.198 0 0 0 180.9 35.3 A 14.426 14.426 0 0 0 179.84 36.639 Q 178.789 38.158 178.629 39.445 A 3.681 3.681 0 0 0 178.6 39.9 A 2.954 2.954 0 0 0 179.171 41.643 A 3.682 3.682 0 0 0 179.25 41.75 Q 179.781 42.445 181.148 43.307 A 20.149 20.149 0 0 0 181.8 43.7 Q 182.566 44.159 183.8 44.824 A 111.098 111.098 0 0 0 184.6 45.25 Q 186.048 46.014 187.173 46.682 A 38.162 38.162 0 0 1 187.7 47 A 14.898 14.898 0 0 1 189.445 48.229 Q 191.8 50.178 191.8 52.3 A 5.87 5.87 0 0 1 191.244 54.74 Q 190.745 55.839 189.8 56.95 A 19.197 19.197 0 0 1 187.186 59.467 A 25.406 25.406 0 0 1 184.65 61.25 Q 181.5 63.2 178 64.4 Q 174.5 65.6 171.4 65.6 Z M 288.4 57.7 L 292.6 57.7 Q 294.6 57.7 296.65 57.75 Q 298.7 57.8 300.4 58.1 A 1.874 1.874 0 0 1 300.788 58.177 Q 301.4 58.374 301.4 59 A 0.823 0.823 0 0 1 300.878 59.787 Q 300.497 59.968 299.84 59.995 A 5.835 5.835 0 0 1 299.6 60 Q 298.1 60 296.45 59.95 Q 294.8 59.9 293.1 59.9 Q 291.9 59.9 290.6 59.95 Q 289.3 60 287.9 60.1 L 287.9 60.2 Q 287.2 61.1 285.7 61.1 A 1.572 1.572 0 0 1 285.203 61.025 A 1.273 1.273 0 0 1 284.6 60.6 A 39.504 39.504 0 0 0 281.233 61.276 A 48.65 48.65 0 0 0 279.1 61.85 Q 277.459 62.331 275.914 62.54 A 17.27 17.27 0 0 1 273.6 62.7 A 0.864 0.864 0 0 1 273.363 62.67 Q 273 62.566 273 62.1 A 3.597 3.597 0 0 1 273.144 61.049 A 2.553 2.553 0 0 1 274.55 59.45 A 8.071 8.071 0 0 1 275.813 58.976 Q 276.441 58.793 277.188 58.661 A 19.938 19.938 0 0 1 278.8 58.45 Q 281.5 58.2 284.8 57.8 A 38.249 38.249 0 0 1 285.166 56.219 Q 285.661 54.252 286.502 51.593 A 145.197 145.197 0 0 1 287.05 49.9 Q 288.7 44.9 290.95 38.9 Q 293.2 32.9 295.6 26.9 Q 298 20.9 300.1 16 A 104.163 104.163 0 0 1 299.116 16.97 Q 298.67 17.404 298.166 17.886 A 217.274 217.274 0 0 1 297.1 18.9 Q 295.3 20.6 293.3 22.35 A 55.39 55.39 0 0 1 291.849 23.578 Q 291.046 24.233 290.308 24.778 A 30.319 30.319 0 0 1 289.65 25.25 Q 288 26.4 287.1 26.4 A 0.917 0.917 0 0 1 286.918 26.383 Q 286.636 26.326 286.604 26.069 A 0.56 0.56 0 0 1 286.6 26 Q 286.7 25.6 288.55 23.8 Q 290.4 22 292.85 19.7 A 88.064 88.064 0 0 0 294.568 18.045 Q 295.9 16.725 296.9 15.6 A 32.885 32.885 0 0 0 297.926 14.437 Q 298.834 13.361 299.9 11.95 A 73.086 73.086 0 0 1 301.781 9.561 A 57.642 57.642 0 0 1 303.2 7.9 A 12.125 12.125 0 0 1 303.871 7.199 Q 304.96 6.156 305.719 6.103 A 1.154 1.154 0 0 1 305.8 6.1 A 3.798 3.798 0 0 1 306.366 6.147 Q 307.164 6.269 308.35 6.7 Q 309.143 6.988 309.554 7.392 A 1.372 1.372 0 0 1 310 8.4 Q 306.9 14.5 303.6 21.35 Q 300.3 28.2 297.25 35 Q 294.2 41.8 291.9 47.65 A 157.28 157.28 0 0 0 290.33 51.805 Q 289.74 53.44 289.257 54.914 A 76.796 76.796 0 0 0 288.4 57.7 Z M 237.2 31.5 L 238.4 31.4 A 86.758 86.758 0 0 0 241.582 31.078 A 74.18 74.18 0 0 0 242.95 30.9 A 22.551 22.551 0 0 1 244.654 30.731 Q 246.15 30.638 247.9 30.7 A 3.729 3.729 0 0 1 248.578 30.765 A 4.572 4.572 0 0 1 248.95 30.85 A 1.713 1.713 0 0 1 249.151 30.917 Q 249.361 31.004 249.445 31.125 A 0.302 0.302 0 0 1 249.5 31.3 Q 249.5 31.659 247.41 32.259 A 32.201 32.201 0 0 1 246.9 32.4 A 5.137 5.137 0 0 1 246.35 32.577 Q 245.433 32.826 243.653 33.094 A 71.866 71.866 0 0 1 242.55 33.25 Q 239.2 33.7 235.7 34.1 Q 235.013 35.406 234.42 36.405 A 29.563 29.563 0 0 1 233.9 37.25 A 50.206 50.206 0 0 0 233.531 37.834 Q 233.05 38.609 232.823 39.054 A 6.149 6.149 0 0 0 232.8 39.1 Q 230.6 43.7 228.85 47.45 A 33.154 33.154 0 0 0 227.927 49.61 Q 227.133 51.686 226.938 53.241 A 8.661 8.661 0 0 0 226.9 53.6 A 3.473 3.473 0 0 0 226.821 54.023 A 2.713 2.713 0 0 0 226.8 54.35 L 226.8 55.1 A 9.213 9.213 0 0 0 226.891 56.459 Q 227.288 59.1 229.4 59.1 Q 230.778 59.1 232.824 57.802 A 17.991 17.991 0 0 0 233.5 57.35 A 36.109 36.109 0 0 0 236.304 55.162 A 47.099 47.099 0 0 0 238.6 53.05 A 136.374 136.374 0 0 0 241.674 49.941 A 111.425 111.425 0 0 0 243.35 48.15 Q 245.5 45.8 246.3 44.6 Q 246.501 44.399 246.701 44.333 A 0.629 0.629 0 0 1 246.9 44.3 A 0.864 0.864 0 0 1 247.239 44.365 A 0.815 0.815 0 0 1 247.55 44.6 A 0.598 0.598 0 0 1 247.689 44.995 Q 247.689 45.178 247.6 45.4 A 14.286 14.286 0 0 1 246.915 46.546 Q 246.028 47.897 244.55 49.65 A 64.863 64.863 0 0 1 241.083 53.435 A 75.121 75.121 0 0 1 239.75 54.75 A 53.998 53.998 0 0 1 236.977 57.248 A 41.372 41.372 0 0 1 234.6 59.1 A 10.702 10.702 0 0 1 233.188 60.01 Q 232.46 60.407 231.599 60.752 A 18.262 18.262 0 0 1 231.35 60.85 Q 229.4 61.6 227.4 61.6 Q 225.6 61.6 224.15 60.8 Q 222.932 60.128 222.243 58.469 A 8.343 8.343 0 0 1 222 57.8 Q 221.9 57.5 221.85 57.2 A 3.407 3.407 0 0 1 221.816 56.918 Q 221.804 56.773 221.801 56.611 A 6.069 6.069 0 0 1 221.8 56.5 A 11.462 11.462 0 0 1 221.906 55.007 Q 222.008 54.238 222.206 53.361 A 28.041 28.041 0 0 1 222.7 51.5 Q 223.6 48.5 224.9 45.7 A 49.639 49.639 0 0 0 224.422 46.349 Q 224.211 46.64 223.98 46.965 A 95.797 95.797 0 0 0 223.5 47.65 Q 222.737 48.747 221.336 50.437 A 87.849 87.849 0 0 1 221.2 50.6 A 1.474 1.474 0 0 1 220.858 50.859 A 1.16 1.16 0 0 1 220.3 51 Q 219.6 51 219.6 50.2 A 1.479 1.479 0 0 1 219.691 49.674 A 1.329 1.329 0 0 1 220 49.2 Q 222.6 45.9 224.65 43.3 Q 226.655 40.758 227.655 38.98 A 16.315 16.315 0 0 0 227.7 38.9 Q 227.7 38.729 228.139 37.936 A 24.318 24.318 0 0 1 228.3 37.65 Q 228.9 36.6 229.9 34.7 A 58.142 58.142 0 0 1 229.335 34.768 Q 229.114 34.793 228.918 34.814 A 27.618 27.618 0 0 1 228.55 34.85 A 14.333 14.333 0 0 1 228.159 34.88 Q 227.85 34.9 227.6 34.9 Q 226.9 34.9 226.4 34.3 Q 225.9 33.7 226.3 32.8 Q 226.8 31.4 228.5 31.2 Q 229.961 31.028 231.126 30.93 A 52.56 52.56 0 0 1 231.5 30.9 Q 231.593 30.714 231.859 30.701 A 0.839 0.839 0 0 1 231.9 30.7 A 290.614 290.614 0 0 0 234.131 26.531 A 267.327 267.327 0 0 0 234.2 26.4 A 670.55 670.55 0 0 1 234.728 25.394 Q 235.488 23.95 236.05 22.9 A 88.914 88.914 0 0 0 236.226 22.57 Q 236.778 21.53 236.799 21.408 A 0.049 0.049 0 0 0 236.8 21.4 A 472.743 472.743 0 0 0 237.608 20.103 Q 238.931 17.97 239.4 17.15 A 3.045 3.045 0 0 1 239.877 16.511 A 2.146 2.146 0 0 1 241 15.9 A 8.282 8.282 0 0 1 241.75 15.867 Q 242.324 15.867 242.934 15.941 A 11.315 11.315 0 0 1 243.35 16 A 4.007 4.007 0 0 1 243.954 16.142 Q 244.26 16.241 244.49 16.385 A 1.469 1.469 0 0 1 245 16.9 A 1.47 1.47 0 0 1 245.265 17.511 A 2.039 2.039 0 0 1 245.3 17.9 Q 245.3 18.8 244.9 19.65 A 9.825 9.825 0 0 1 244.613 20.216 Q 244.468 20.477 244.324 20.692 A 4.476 4.476 0 0 1 244.1 21 A 2.44 2.44 0 0 1 243.718 21.511 A 1.885 1.885 0 0 1 243.05 21.95 Q 242.4 22.2 241.9 23.2 Q 240.9 25.1 239.7 27.3 Q 238.5 29.5 237.2 31.5 Z M 204.8 61.6 Q 203 61.6 201.55 60.8 Q 200.332 60.128 199.643 58.469 A 8.343 8.343 0 0 1 199.4 57.8 Q 199.3 57.5 199.25 57.2 A 3.407 3.407 0 0 1 199.216 56.918 Q 199.204 56.773 199.201 56.611 A 6.069 6.069 0 0 1 199.2 56.5 A 11.462 11.462 0 0 1 199.306 55.007 Q 199.408 54.238 199.606 53.361 A 28.041 28.041 0 0 1 200.1 51.5 Q 201 48.5 202.3 45.7 A 49.639 49.639 0 0 0 201.822 46.349 Q 201.611 46.64 201.38 46.965 A 95.797 95.797 0 0 0 200.9 47.65 Q 200.137 48.747 198.736 50.437 A 87.849 87.849 0 0 1 198.6 50.6 A 1.474 1.474 0 0 1 198.258 50.859 A 1.16 1.16 0 0 1 197.7 51 Q 197 51 197 50.2 A 1.479 1.479 0 0 1 197.091 49.674 A 1.329 1.329 0 0 1 197.4 49.2 Q 200 45.9 202.05 43.3 Q 204.055 40.758 205.055 38.98 A 16.315 16.315 0 0 0 205.1 38.9 A 0.319 0.319 0 0 0 205.095 38.844 Q 205.09 38.813 205.078 38.789 A 0.148 0.148 0 0 0 205.05 38.75 Q 205.009 38.709 205.001 38.633 A 0.352 0.352 0 0 1 205 38.6 Q 205 38.3 205.3 37.7 Q 205.952 35.745 206.636 34.288 A 19.54 19.54 0 0 1 206.95 33.65 A 6.737 6.737 0 0 1 207.377 32.926 Q 207.89 32.178 208.453 31.915 A 1.524 1.524 0 0 1 208.8 31.8 Q 209 31.8 209.2 31.75 Q 209.4 31.7 209.6 31.7 A 4.185 4.185 0 0 1 211.018 31.936 A 3.892 3.892 0 0 1 211.6 32.2 A 1.897 1.897 0 0 1 212.122 32.613 Q 212.465 33.01 212.497 33.58 A 2.125 2.125 0 0 1 212.5 33.7 A 3.21 3.21 0 0 1 212.416 34.399 Q 212.266 35.067 211.85 35.9 Q 211.208 37.185 210.224 39.055 A 295.348 295.348 0 0 1 210.2 39.1 Q 208 43.7 206.25 47.45 A 33.154 33.154 0 0 0 205.327 49.61 Q 204.533 51.686 204.338 53.241 A 8.661 8.661 0 0 0 204.3 53.6 A 3.473 3.473 0 0 0 204.221 54.023 A 2.713 2.713 0 0 0 204.2 54.35 L 204.2 55.1 A 9.213 9.213 0 0 0 204.291 56.459 Q 204.688 59.1 206.8 59.1 Q 208.178 59.1 210.224 57.802 A 17.991 17.991 0 0 0 210.9 57.35 A 36.109 36.109 0 0 0 213.704 55.162 A 47.099 47.099 0 0 0 216 53.05 A 136.374 136.374 0 0 0 219.074 49.941 A 111.425 111.425 0 0 0 220.75 48.15 Q 222.9 45.8 223.7 44.6 Q 223.901 44.399 224.101 44.333 A 0.629 0.629 0 0 1 224.3 44.3 A 0.864 0.864 0 0 1 224.639 44.365 A 0.815 0.815 0 0 1 224.95 44.6 A 0.598 0.598 0 0 1 225.089 44.995 Q 225.089 45.178 225 45.4 A 14.286 14.286 0 0 1 224.315 46.546 Q 223.428 47.897 221.95 49.65 A 64.863 64.863 0 0 1 218.483 53.435 A 75.121 75.121 0 0 1 217.15 54.75 A 53.998 53.998 0 0 1 214.377 57.248 A 41.372 41.372 0 0 1 212 59.1 A 10.702 10.702 0 0 1 210.588 60.01 Q 209.86 60.407 208.999 60.752 A 18.262 18.262 0 0 1 208.75 60.85 Q 206.8 61.6 204.8 61.6 Z M 143.2 34.7 A 73.499 73.499 0 0 0 149.525 30.055 A 87.486 87.486 0 0 0 152.4 27.6 Q 157 23.5 160.95 19 Q 164.9 14.5 167.3 10.6 A 10.966 10.966 0 0 0 168.271 8.667 Q 168.8 7.266 168.8 5.9 A 4.459 4.459 0 0 0 168.726 5.064 Q 168.617 4.495 168.35 4.05 A 1.475 1.475 0 0 0 167.284 3.331 A 2.269 2.269 0 0 0 166.9 3.3 A 3.051 3.051 0 0 0 166.315 3.361 Q 165.829 3.456 165.25 3.7 Q 164.3 4.1 163.2 5.1 A 38.027 38.027 0 0 0 157.827 10.122 A 46.447 46.447 0 0 0 155.4 13.1 Q 151.8 17.9 148.8 23.45 Q 145.8 29 143.2 34.7 Z M 213.608 25.647 A 14.908 14.908 0 0 0 215.7 25.8 A 0.897 0.897 0 0 0 216.055 25.72 Q 216.382 25.58 216.76 25.19 A 5.508 5.508 0 0 0 217.1 24.8 Q 217.9 23.8 218.5 22.6 A 14.961 14.961 0 0 0 218.584 22.43 Q 219.1 21.364 219.1 20.9 A 4.46 4.46 0 0 1 219.127 20.415 Q 219.173 19.997 219.295 19.533 A 8.958 8.958 0 0 1 219.6 18.6 Q 220.1 17.3 219.6 17.3 A 0.3 0.3 0 0 0 219.551 17.304 Q 219.194 17.363 218.092 18.224 A 29.596 29.596 0 0 0 217.5 18.7 A 2.824 2.824 0 0 0 217.437 18.744 Q 217.145 18.95 216.253 19.652 A 181.793 181.793 0 0 0 215.75 20.05 A 295.01 295.01 0 0 0 215.389 20.337 A 269.479 269.479 0 0 0 212.95 22.3 A 23.289 23.289 0 0 0 212.736 22.477 Q 211.851 23.215 211.656 23.545 A 0.326 0.326 0 0 0 211.6 23.7 A 2.846 2.846 0 0 0 211.6 23.702 Q 211.6 24.85 212.323 25.303 A 1.89 1.89 0 0 0 213 25.55 A 17.134 17.134 0 0 0 213.608 25.647 Z" vector-effect="non-scaling-stroke"/></g></svg>