<svg width="434.424" height="108.398" viewBox="0 0 434.424 108.398" xmlns="http://www.w3.org/2000/svg"><g id="svgGroup" stroke-linecap="round" fill-rule="evenodd" font-size="9pt" stroke="#000" stroke-width="0" fill="#ffc300" style="stroke:#000;stroke-width:0;fill:#ffc300"><path d="M 249.512 94.385 L 243.311 91.016 A 37.017 37.017 0 0 0 244.906 87.777 A 46.5 46.5 0 0 0 245.898 85.303 A 83.19 83.19 0 0 0 247.674 79.92 A 93.193 93.193 0 0 0 248.047 78.613 Q 249.023 75.098 249.756 71.387 Q 250.488 67.676 251.001 63.989 A 107.426 107.426 0 0 0 251.693 57.706 A 96.918 96.918 0 0 0 251.758 56.836 A 100.381 100.381 0 0 0 251.966 52.724 A 81.529 81.529 0 0 0 252.002 50.342 A 67.832 67.832 0 0 0 251.978 48.56 A 86.136 86.136 0 0 0 251.904 46.631 Q 251.807 44.629 251.489 42.627 A 22.374 22.374 0 0 0 250.537 38.794 A 11.83 11.83 0 0 0 249.168 36.029 A 10.897 10.897 0 0 0 248.804 35.522 A 8.123 8.123 0 0 0 246.069 33.228 A 7.259 7.259 0 0 0 244.052 32.542 Q 243.188 32.378 242.202 32.373 A 12.244 12.244 0 0 0 242.139 32.373 A 7.025 7.025 0 0 0 240.178 32.636 A 5.729 5.729 0 0 0 238.306 33.569 A 10.068 10.068 0 0 0 236.186 35.762 A 12.115 12.115 0 0 0 235.596 36.67 A 16.703 16.703 0 0 0 234.271 39.519 A 20.027 20.027 0 0 0 233.813 40.967 A 38.262 38.262 0 0 0 232.812 45.776 Q 232.471 48.193 232.349 50.391 Q 232.265 51.901 232.238 53.089 A 46.021 46.021 0 0 0 232.227 54.102 L 232.227 82.373 L 215.771 82.373 L 215.771 56.104 A 149.541 149.541 0 0 1 215.778 54.722 Q 215.79 53.488 215.82 51.978 A 53.724 53.724 0 0 0 215.831 50.892 Q 215.831 48.975 215.698 46.924 Q 215.527 44.287 215.063 41.675 A 19.495 19.495 0 0 0 214.373 38.918 A 15.546 15.546 0 0 0 213.599 37.012 Q 212.598 34.961 210.889 33.667 A 6.243 6.243 0 0 0 208.303 32.533 A 8.734 8.734 0 0 0 206.592 32.373 A 6.542 6.542 0 0 0 204.805 32.607 A 5.192 5.192 0 0 0 202.905 33.594 A 9.391 9.391 0 0 0 201.017 35.714 A 11.535 11.535 0 0 0 200.415 36.743 A 17.25 17.25 0 0 0 199.291 39.485 A 21.176 21.176 0 0 0 198.853 41.089 A 41.692 41.692 0 0 0 198.022 45.923 A 55.694 55.694 0 0 0 197.773 48.849 A 47.034 47.034 0 0 0 197.705 50.513 A 259.697 259.697 0 0 0 197.684 51.552 Q 197.658 52.941 197.656 53.959 A 85.389 85.389 0 0 0 197.656 54.102 L 197.656 82.373 L 181.104 82.373 L 181.104 25.977 L 187.451 25.977 L 193.506 39.111 Q 195.557 32.275 199.976 28.442 A 15.114 15.114 0 0 1 206.44 25.194 Q 208.858 24.609 211.719 24.609 A 26.368 26.368 0 0 1 216.347 24.994 Q 219.126 25.49 221.38 26.624 A 15.358 15.358 0 0 1 222.656 27.344 A 15.151 15.151 0 0 1 226.848 31.348 Q 228.361 33.437 229.492 36.23 A 31.047 31.047 0 0 1 231.692 32.647 A 27.007 27.007 0 0 1 232.642 31.396 A 19.579 19.579 0 0 1 236.235 27.926 A 18.331 18.331 0 0 1 236.499 27.734 A 16.519 16.519 0 0 1 241.211 25.415 A 17.734 17.734 0 0 1 244.747 24.713 A 22.149 22.149 0 0 1 246.924 24.609 A 29.628 29.628 0 0 1 251.327 24.92 Q 253.777 25.288 255.834 26.094 A 17.202 17.202 0 0 1 256.763 26.489 A 18.133 18.133 0 0 1 261.948 30.027 A 16.974 16.974 0 0 1 263.428 31.689 A 20.324 20.324 0 0 1 266.51 37.362 A 24.757 24.757 0 0 1 267.187 39.575 A 37.476 37.476 0 0 1 268.245 46.21 A 45.286 45.286 0 0 1 268.359 49.463 A 54.746 54.746 0 0 1 267.622 58.26 A 64.339 64.339 0 0 1 266.992 61.572 A 72.52 72.52 0 0 1 263.159 73.853 Q 260.693 79.834 257.227 85.156 A 50.391 50.391 0 0 1 252.09 91.805 A 43.863 43.863 0 0 1 249.512 94.385 Z M 50.488 73.389 L 50.488 82.373 L 0 82.373 L 0 12.061 L 50.488 12.061 L 50.488 21.045 L 19.385 21.045 L 19.385 42.773 L 43.408 42.773 L 43.408 51.709 L 19.385 51.709 L 19.385 73.389 L 50.488 73.389 Z M 89.6 51.27 L 111.279 82.373 L 94.775 82.373 L 80.957 62.598 L 66.846 82.373 L 55.42 82.373 L 76.66 56.396 L 55.42 25.977 L 71.924 25.977 L 85.303 45.117 L 99.854 25.977 L 111.279 25.977 L 89.6 51.27 Z M 295.85 75.635 L 295.85 108.398 L 279.346 108.398 L 279.346 25.977 L 285.693 25.977 L 293.018 38.232 A 20.632 20.632 0 0 1 295.972 32.642 Q 297.852 30.127 300.317 28.345 A 19.801 19.801 0 0 1 305.737 25.586 Q 308.691 24.609 311.963 24.609 A 30.981 30.981 0 0 1 318.38 25.248 A 24.827 24.827 0 0 1 323.486 26.904 A 25.09 25.09 0 0 1 332.08 33.179 A 27.221 27.221 0 0 1 337.089 41.534 A 31.324 31.324 0 0 1 337.451 42.529 A 34.364 34.364 0 0 1 339.261 52.149 A 39.636 39.636 0 0 1 339.307 54.053 Q 339.307 60.205 337.451 65.576 A 28.127 28.127 0 0 1 333.539 73.119 A 26.041 26.041 0 0 1 332.08 74.927 A 25.09 25.09 0 0 1 323.486 81.201 A 25.67 25.67 0 0 1 316.232 83.225 A 32.608 32.608 0 0 1 311.963 83.496 A 21.965 21.965 0 0 1 305.563 82.584 A 19.867 19.867 0 0 1 302.905 81.567 A 17.923 17.923 0 0 1 296.697 76.72 A 21.594 21.594 0 0 1 295.85 75.635 Z M 162.109 65.967 L 169.238 68.604 Q 167.627 72.461 164.819 75.269 A 25.472 25.472 0 0 1 158.472 79.907 Q 154.932 81.738 150.952 82.617 Q 146.973 83.496 143.066 83.496 Q 136.621 83.496 131.152 81.323 A 28.16 28.16 0 0 1 122.741 76.194 A 26.81 26.81 0 0 1 121.729 75.244 A 27.969 27.969 0 0 1 115.598 66.087 A 31.812 31.812 0 0 1 115.527 65.918 A 29.805 29.805 0 0 1 113.367 56.531 A 35.365 35.365 0 0 1 113.281 54.053 A 32.299 32.299 0 0 1 114.249 46.035 A 28.369 28.369 0 0 1 115.527 42.187 A 28.139 28.139 0 0 1 121.211 33.387 A 27.068 27.068 0 0 1 121.729 32.861 Q 125.684 28.955 131.152 26.782 A 31.119 31.119 0 0 1 140.684 24.686 A 36.696 36.696 0 0 1 143.066 24.609 A 47.962 47.962 0 0 1 149.361 25.035 A 52.337 52.337 0 0 1 149.463 25.049 A 38.978 38.978 0 0 1 155.811 26.44 A 30.708 30.708 0 0 1 161.621 28.906 Q 164.355 30.42 166.382 32.642 Q 168.408 34.863 169.604 37.793 Q 170.801 40.723 170.801 44.482 A 18.312 18.312 0 0 1 170.52 47.76 A 14.172 14.172 0 0 1 169.678 50.659 A 15.591 15.591 0 0 1 166.626 55.42 Q 164.697 57.471 162.158 58.887 Q 159.619 60.303 156.738 61.206 A 34.375 34.375 0 0 1 150.806 62.5 A 47.3 47.3 0 0 1 145.596 62.885 A 42.972 42.972 0 0 1 144.873 62.891 A 50.695 50.695 0 0 1 137.646 62.378 Q 134.082 61.865 130.615 60.742 Q 131.152 63.965 132.324 66.87 A 17.427 17.427 0 0 0 134.688 71.035 A 16.021 16.021 0 0 0 135.449 71.948 A 13.876 13.876 0 0 0 139.731 75.145 A 16.063 16.063 0 0 0 140.259 75.391 Q 143.032 76.623 146.794 76.659 A 23.758 23.758 0 0 0 147.021 76.66 Q 149.609 76.66 151.953 75.879 Q 154.297 75.098 156.25 73.682 Q 158.203 72.266 159.692 70.313 A 17.639 17.639 0 0 0 162.109 65.967 Z M 425.732 65.967 L 432.861 68.604 Q 431.25 72.461 428.442 75.269 A 25.472 25.472 0 0 1 422.095 79.907 Q 418.555 81.738 414.575 82.617 Q 410.596 83.496 406.689 83.496 Q 400.244 83.496 394.775 81.323 A 28.16 28.16 0 0 1 386.364 76.194 A 26.81 26.81 0 0 1 385.352 75.244 A 27.969 27.969 0 0 1 379.221 66.087 A 31.812 31.812 0 0 1 379.15 65.918 A 29.805 29.805 0 0 1 376.99 56.531 A 35.365 35.365 0 0 1 376.904 54.053 A 32.299 32.299 0 0 1 377.872 46.035 A 28.369 28.369 0 0 1 379.15 42.187 A 28.139 28.139 0 0 1 384.834 33.387 A 27.068 27.068 0 0 1 385.352 32.861 Q 389.307 28.955 394.775 26.782 A 31.119 31.119 0 0 1 404.307 24.686 A 36.696 36.696 0 0 1 406.689 24.609 A 47.962 47.962 0 0 1 412.984 25.035 A 52.337 52.337 0 0 1 413.086 25.049 A 38.978 38.978 0 0 1 419.434 26.44 A 30.708 30.708 0 0 1 425.244 28.906 Q 427.979 30.42 430.005 32.642 Q 432.031 34.863 433.228 37.793 Q 434.424 40.723 434.424 44.482 A 18.312 18.312 0 0 1 434.143 47.76 A 14.172 14.172 0 0 1 433.301 50.659 A 15.591 15.591 0 0 1 430.249 55.42 Q 428.32 57.471 425.781 58.887 Q 423.242 60.303 420.361 61.206 A 34.375 34.375 0 0 1 414.429 62.5 A 47.3 47.3 0 0 1 409.219 62.885 A 42.972 42.972 0 0 1 408.496 62.891 A 50.695 50.695 0 0 1 401.27 62.378 Q 397.705 61.865 394.238 60.742 Q 394.775 63.965 395.947 66.87 A 17.427 17.427 0 0 0 398.311 71.035 A 16.021 16.021 0 0 0 399.072 71.948 A 13.876 13.876 0 0 0 403.354 75.145 A 16.063 16.063 0 0 0 403.882 75.391 Q 406.655 76.623 410.417 76.659 A 23.758 23.758 0 0 0 410.645 76.66 Q 413.232 76.66 415.576 75.879 Q 417.92 75.098 419.873 73.682 Q 421.826 72.266 423.315 70.313 A 17.639 17.639 0 0 0 425.732 65.967 Z M 366.406 17.139 L 366.406 82.373 L 349.902 82.373 L 349.902 0 L 356.25 0 L 366.406 17.139 Z M 322.559 54.053 A 47.192 47.192 0 0 0 322.473 51.262 A 56.636 56.636 0 0 0 322.339 49.487 A 37.391 37.391 0 0 0 321.582 44.678 Q 321.045 42.285 320.093 40.088 A 15.178 15.178 0 0 0 318.207 36.856 A 13.89 13.89 0 0 0 317.676 36.206 Q 316.211 34.521 314.136 33.521 Q 312.061 32.52 309.326 32.52 A 13.857 13.857 0 0 0 306.993 32.706 Q 305.586 32.947 304.419 33.496 A 10.893 10.893 0 0 0 300.854 36.157 A 14.639 14.639 0 0 0 298.443 39.947 A 16.354 16.354 0 0 0 298.413 40.015 A 24.975 24.975 0 0 0 296.924 44.58 A 37.317 37.317 0 0 0 296.167 49.414 Q 295.947 51.855 295.947 54.053 Q 295.947 56.006 296.24 58.374 A 35.595 35.595 0 0 0 297.168 63.135 Q 297.803 65.527 298.828 67.773 A 17.509 17.509 0 0 0 300.845 71.159 A 16.001 16.001 0 0 0 301.343 71.777 A 11.711 11.711 0 0 0 304.81 74.585 A 8.974 8.974 0 0 0 307.942 75.552 A 11.24 11.24 0 0 0 309.326 75.635 A 13.033 13.033 0 0 0 311.698 75.429 A 9.543 9.543 0 0 0 314.16 74.634 Q 316.211 73.633 317.676 71.948 A 14.704 14.704 0 0 0 319.878 68.541 A 16.708 16.708 0 0 0 320.093 68.066 Q 321.045 65.869 321.582 63.477 A 37.317 37.317 0 0 0 322.339 58.643 A 55.301 55.301 0 0 0 322.528 55.705 A 45.34 45.34 0 0 0 322.559 54.053 Z M 130.127 55.615 Q 133.154 56.299 136.182 56.689 Q 139.209 57.08 142.285 57.08 A 29.926 29.926 0 0 0 146.041 56.853 A 24.588 24.588 0 0 0 148.267 56.47 A 14.235 14.235 0 0 0 151.138 55.52 A 11.761 11.761 0 0 0 153.052 54.419 A 9.877 9.877 0 0 0 156.023 51.026 A 11.676 11.676 0 0 0 156.25 50.586 A 10.701 10.701 0 0 0 157.091 48.085 Q 157.339 46.913 157.401 45.555 A 20.31 20.31 0 0 0 157.422 44.629 Q 157.422 41.748 156.641 39.355 A 11.843 11.843 0 0 0 155.289 36.51 A 10.477 10.477 0 0 0 154.321 35.254 A 10.497 10.497 0 0 0 150.746 32.684 A 12.108 12.108 0 0 0 150.537 32.593 A 11.673 11.673 0 0 0 147.779 31.823 A 15.93 15.93 0 0 0 145.312 31.641 A 12.995 12.995 0 0 0 142.436 31.947 A 10.707 10.707 0 0 0 140.308 32.666 A 12.986 12.986 0 0 0 136.401 35.425 Q 134.717 37.158 133.521 39.453 A 29.313 29.313 0 0 0 131.543 44.238 A 30.263 30.263 0 0 0 130.42 49.268 A 38.723 38.723 0 0 0 130.126 52.327 A 31.777 31.777 0 0 0 130.078 54.053 L 130.078 54.834 A 6.293 6.293 0 0 0 130.127 55.615 Z M 393.75 55.615 Q 396.777 56.299 399.805 56.689 Q 402.832 57.08 405.908 57.08 A 29.926 29.926 0 0 0 409.664 56.853 A 24.588 24.588 0 0 0 411.89 56.47 A 14.235 14.235 0 0 0 414.762 55.52 A 11.761 11.761 0 0 0 416.675 54.419 A 9.877 9.877 0 0 0 419.646 51.026 A 11.676 11.676 0 0 0 419.873 50.586 A 10.701 10.701 0 0 0 420.714 48.085 Q 420.962 46.913 421.024 45.555 A 20.31 20.31 0 0 0 421.045 44.629 Q 421.045 41.748 420.264 39.355 A 11.843 11.843 0 0 0 418.912 36.51 A 10.477 10.477 0 0 0 417.944 35.254 A 10.497 10.497 0 0 0 414.369 32.684 A 12.108 12.108 0 0 0 414.16 32.593 A 11.673 11.673 0 0 0 411.402 31.823 A 15.93 15.93 0 0 0 408.936 31.641 A 12.995 12.995 0 0 0 406.059 31.947 A 10.707 10.707 0 0 0 403.931 32.666 A 12.986 12.986 0 0 0 400.024 35.425 Q 398.34 37.158 397.144 39.453 A 29.313 29.313 0 0 0 395.166 44.238 A 30.263 30.263 0 0 0 394.043 49.268 A 38.723 38.723 0 0 0 393.749 52.327 A 31.777 31.777 0 0 0 393.701 54.053 L 393.701 54.834 A 6.293 6.293 0 0 0 393.75 55.615 Z" vector-effect="non-scaling-stroke"/></g></svg>